<svg width="16" height="16" viewBox="0 0 16 16" fill="none" xmlns="http://www.w3.org/2000/svg">
<circle cx="8.00012" cy="8.00012" r="8.00012" fill="#FF0000"/>
<path d="M8.89103 7.89092L10.9211 5.87962C11.0339 5.76683 11.0339 5.56006 10.9211 5.44728L10.4512 4.97735C10.3384 4.86456 10.1317 4.86456 10.0189 4.97735L8.00756 7.00745L5.97746 4.97735C5.86467 4.86456 5.6579 4.86456 5.54512 4.97735L5.07519 5.44728C4.96241 5.56006 4.96241 5.76683 5.07519 5.87962L7.10529 7.89092L5.07519 9.92103C4.96241 10.0338 4.96241 10.2406 5.07519 10.3534L5.54512 10.8233C5.6579 10.9361 5.86467 10.9361 5.97746 10.8233L8.00756 8.79319L10.0189 10.8233C10.1317 10.9361 10.3384 10.9361 10.4512 10.8233L10.9211 10.3534C11.0339 10.2406 11.0339 10.0338 10.9211 9.92103L8.89103 7.89092Z" fill="white"/>
</svg>
